HIERARCHY
ROOT Hips
{
	OFFSET 0.000000 0.000000 0.000000
	CHANNELS 6 Xposition Yposition Zposition Zrotation Yrotation Xrotation 
	JOINT LHipJoint
	{
		OFFSET 0.000000 0.000000 0.000000
		CHANNELS 3 Zrotation Yrotation Xrotation
		JOINT LeftUpLeg
		{
			OFFSET 1.363060 -1.794630 0.839290
			CHANNELS 3 Zrotation Yrotation Xrotation
			JOINT LeftLeg
			{
				OFFSET 2.448110 -6.726130 0.000000
				CHANNELS 3 Zrotation Yrotation Xrotation
				JOINT LeftFoot
				{
					OFFSET 2.562200 -7.039590 0.000000
					CHANNELS 3 Zrotation Yrotation Xrotation
					JOINT LeftToeBase
					{
						OFFSET 0.157640 -0.433110 2.322550
						CHANNELS 3 Zrotation Yrotation Xrotation
						End Site
						{
							OFFSET 0.000000 0.000000 0.000000
						}
					}
				}
			}
		}
	}
	JOINT RHipJoint
	{
		OFFSET 0.000000 0.000000 0.000000
		CHANNELS 3 Zrotation Yrotation Xrotation
		JOINT RightUpLeg
		{
			OFFSET -1.305520 -1.794630 0.839290
			CHANNELS 3 Zrotation Yrotation Xrotation
			JOINT RightLeg
			{
				OFFSET -2.542530 -6.985550 0.000000
				CHANNELS 3 Zrotation Yrotation Xrotation
				JOINT RightFoot
				{
					OFFSET -2.568260 -7.056230 0.000000
					CHANNELS 3 Zrotation Yrotation Xrotation
					JOINT RightToeBase
					{
						OFFSET -0.164730 -0.452590 2.363150
						CHANNELS 3 Zrotation Yrotation Xrotation
						End Site
						{
							OFFSET 0.000000 0.000000 0.000000
						}
					}
				}
			}
		}
	}
}
MOTION
Frames: 14
Frame Time: 0.008333
3.474336 17.240048 0.814315 162.386529 -87.688526 -150.691521 -10.578546 1.350147 0.576285 -5.503830 16.288567 -14.991714 -2.734007 -1.636416 -3.511733 0.424557 5.494780 4.821378 1.448400 0.000000 -35.251900 10.437063 -2.201501 2.982091 1.617916 -3.619113 -12.690086 2.030904 1.070290 -0.788980 -0.220368 -4.643907 -0.677892 -1.746601 -0.000000 -42.879899
3.470676 17.238696 0.816019 162.082357 -87.865596 -150.299530 -10.575029 1.327309 0.503895 -5.461840 16.241999 -14.990992 -2.733035 -1.628883 -3.554579 0.415849 5.394548 4.826904 1.426200 -0.000000 -35.324300 10.443007 -2.161863 2.901553 1.649879 -3.597795 -12.619623 2.022639 1.071079 -0.802413 -0.236096 -4.806858 -0.726369 -1.780400 -0.000000 -42.827800
3.467262 17.237196 0.818184 161.908928 -87.968606 -149.844845 -10.598730 1.271831 0.311042 -5.433339 16.191205 -15.052257 -2.732007 -1.608412 -3.619955 0.413722 5.303920 4.824790 1.401900 0.000000 -35.405500 10.426317 -2.053210 2.694198 1.674390 -3.529097 -12.600193 2.018638 1.081735 -0.825736 -0.250435 -4.973177 -0.767812 -1.815799 -0.000000 -42.776901
3.464132 17.235610 0.820692 161.811821 -87.847488 -149.396576 -10.678246 1.230183 0.100302 -5.430964 16.151755 -15.130735 -2.731345 -1.577019 -3.713800 0.418099 5.228372 4.814998 1.376500 0.000000 -35.492601 10.355441 -1.906828 2.425612 1.666780 -3.421165 -12.601758 2.020615 1.118197 -0.856813 -0.259058 -5.122051 -0.797634 -1.851300 -0.000001 -42.729400
3.461323 17.234004 0.823421 161.619072 -87.683724 -149.124943 -10.759100 1.248425 0.053310 -5.417616 16.148689 -15.101511 -2.728116 -1.553113 -3.790157 0.416987 5.141353 4.808592 1.351100 -0.000001 -35.582200 10.279510 -1.839434 2.308147 1.649045 -3.346027 -12.505915 2.018144 1.154833 -0.885662 -0.268942 -5.267566 -0.823490 -1.885901 -0.000000 -42.686700
3.458717 17.232441 0.826291 161.364385 -87.637775 -148.984564 -10.808492 1.292192 0.102233 -5.378829 16.163206 -14.998794 -2.722262 -1.539384 -3.841257 0.409645 5.042508 4.807574 1.326800 -0.000000 -35.671300 10.233237 -1.837673 2.308352 1.646793 -3.310946 -12.336798 2.011080 1.176997 -0.909938 -0.282714 -5.417265 -0.849875 -1.918600 0.000000 -42.650000
3.456249 17.231006 0.829192 161.114951 -87.663380 -148.903572 -10.839841 1.338010 0.172614 -5.326357 16.178229 -14.874564 -2.715337 -1.530727 -3.880823 0.400331 4.944609 4.808475 1.304100 -0.000000 -35.756900 10.204640 -1.858033 2.343286 1.656848 -3.298265 -12.149040 2.003295 1.190882 -0.930235 -0.297486 -5.561693 -0.875083 -1.948500 0.000000 -42.619600
3.453883 17.229715 0.832081 160.879793 -87.716763 -148.850108 -10.863337 1.382504 0.247595 -5.268014 16.187866 -14.745320 -2.707664 -1.524306 -3.914635 0.391072 4.854033 4.809390 1.283700 -0.000001 -35.837701 10.183691 -1.885189 2.386003 1.674241 -3.303949 -11.962880 1.996558 1.200847 -0.944201 -0.311026 -5.692935 -0.899119 -1.975300 -0.000000 -42.596500
3.451482 17.228570 0.834858 160.654430 -87.780438 -148.807884 -10.883070 1.426097 0.325130 -5.207779 16.189929 -14.617490 -2.699360 -1.519124 -3.944081 0.382607 4.773275 4.809414 1.265500 -0.000001 -35.912001 10.166246 -1.914813 2.429590 1.696955 -3.329032 -11.786189 1.991660 1.208739 -0.949727 -0.322223 -5.806830 -0.922865 -1.998400 -0.000000 -42.580700
3.448969 17.227538 0.837499 160.421164 -87.849314 -148.753626 -10.900203 1.468852 0.404680 -5.147547 16.182446 -14.495197 -2.690628 -1.514949 -3.970007 0.375083 4.702302 4.808041 1.249500 0.000000 -35.979700 10.151048 -1.945079 2.471234 1.724512 -3.375140 -11.624093 1.988944 1.215268 -0.945045 -0.330359 -5.901719 -0.947505 -2.018000 0.000000 -42.572200
3.446237 17.226606 0.839944 160.168664 -87.922311 -148.671297 -10.915186 1.510432 0.485320 -5.088950 16.164958 -14.382756 -2.681813 -1.511774 -3.992820 0.368406 4.639711 4.805024 1.235500 0.000000 -36.041300 10.137585 -1.974883 2.509359 1.756512 -3.442378 -11.480129 1.988549 1.220935 -0.929937 -0.335455 -5.977576 -0.974373 -2.034100 -0.000000 -42.570700
3.443123 17.225744 0.842202 159.884880 -88.000272 -148.543458 -10.928043 1.550503 0.566296 -5.032638 16.136693 -14.282882 -2.673238 -1.509744 -4.013526 0.362353 4.583467 4.800402 1.222900 0.000000 -36.097200 10.125784 -2.003656 2.543215 1.793123 -3.529340 -11.356884 1.990445 1.226042 -0.904565 -0.337296 -6.035882 -1.004469 -2.047200 -0.000000 -42.574900
3.439495 17.224888 0.844266 159.557363 -88.082995 -148.354343 -10.938829 1.588867 0.646702 -4.980112 16.099510 -14.198831 -2.665386 -1.508945 -4.032587 0.356635 4.530771 4.793935 1.211200 0.000000 -36.149200 10.115580 -2.030914 2.572905 1.833434 -3.632637 -11.255750 1.994368 1.230999 -0.870336 -0.336307 -6.079490 -1.038749 -2.057800 -0.000000 -42.584600
3.435372 17.224040 0.846150 159.177061 -88.170590 -148.094045 -10.947539 1.625166 0.725707 -4.931615 16.055178 -14.131902 -2.658538 -1.509366 -4.050542 0.350939 4.478866 4.785931 1.199800 0.000000 -36.198200 10.106919 -2.056389 2.598849 1.876938 -3.747886 -11.176815 1.999951 1.235974 -0.828502 -0.333117 -6.111823 -1.077702 -2.066600 0.000000 -42.597900
